<?xml version="1.0" encoding="UTF-8"?>
<svg width="54px" height="54px" viewBox="0 0 54 54" version="1.1" xmlns="http://www.w3.org/2000/svg" xmlns:xlink="http://www.w3.org/1999/xlink">
    <!-- Generator: Sketch 50.2 (55047) - http://www.bohemiancoding.com/sketch -->
    <title>Shape</title>
    <desc>Created with Sketch.</desc>
    <defs></defs>
    <g id="Page-1" stroke="none" stroke-width="1" fill="none" fill-rule="evenodd">
        <g id="Artboard" transform="translate(-650.000000, -486.000000)" fill="#FFFFFF" fill-rule="nonzero">
            <g id="Group" transform="translate(466.000000, 223.000000)">
                <g id="compass" transform="translate(188.000000, 267.000000)">
                    <path d="M-3.99964969,23.2446297 C-3.93046275,8.35243581 5.69854929,-3.5103516 21.2797528,-3.98816185 C37.0335376,-4.47112851 49.567093,10.2723507 49.1994151,26.1927199 C48.8415034,41.7005401 34.1180646,52.5342932 18.5950309,49.4910535 C18.5343382,49.4791296 18.4747161,49.4661238 18.4160806,49.4520844 C4.81608515,49.3143397 -4.06622255,37.5741543 -3.99964969,23.2446297 Z M41.2015463,26.0080722 C41.4697698,14.3940543 32.3582296,3.67596183 21.5249295,4.00808029 C10.6012674,4.34306325 4.05075794,12.4131852 4.00026398,23.2817961 C3.95146647,33.785252 10.0304563,41.641185 19.0039152,41.4496039 L19.7629241,41.4333992 L20.4750891,41.6964167 C31.1755889,43.5861737 40.9648235,36.2649454 41.2015463,26.0080722 Z M36.1519269,22.0961521 C34.0941234,13.2358563 27.753278,7.68590165 19.8709005,8.60005708 C11.4621742,9.57526538 6.04565721,18.365608 8.30091596,26.7391572 C9.77296863,32.2036957 13.9552009,35.7335844 20.7145027,37.6842402 C30.9811293,38.5667504 38.3057142,31.3689631 36.1519269,22.0961521 Z M18.9059683,45.4865227 C9.45323602,42.8626131 2.89712776,37.435449 0.57623481,28.8198544 C-2.90870249,15.8806324 5.51408758,2.21147737 18.9492765,0.653321318 C31.2775184,-0.776441371 41.0365189,7.76532353 43.9445042,20.2862518 C47.4425233,35.3464527 35.167213,47.2072024 19.5687701,45.6114891 L19.2320824,45.5770461 L18.9059683,45.4865227 Z" id="Shape"></path>
                </g>
            </g>
        </g>
    </g>
</svg>