<?xml version="1.0" encoding="UTF-8"?>
<svg width="55px" height="50px" viewBox="0 0 55 50" version="1.1" xmlns="http://www.w3.org/2000/svg" xmlns:xlink="http://www.w3.org/1999/xlink">
    <!-- Generator: Sketch 50.2 (55047) - http://www.bohemiancoding.com/sketch -->
    <title>cross</title>
    <desc>Created with Sketch.</desc>
    <defs></defs>
    <g id="Page-1" stroke="none" stroke-width="1" fill="none" fill-rule="evenodd">
        <g id="Artboard" transform="translate(-507.000000, -488.000000)" fill="#FFFFFF" fill-rule="nonzero">
            <g id="Group" transform="translate(466.000000, 223.000000)">
                <g id="cross" transform="translate(41.000000, 265.000000)">
                    <path d="M53.7481818,8.30857143 C54.1902597,7.44675325 54.1158442,6.46974026 53.7287013,5.6587013 C53.8377922,4.73584416 53.5962338,3.79883117 52.7227273,3.08012987 C51.9094805,2.41116883 51.0963636,1.74181818 50.2836364,1.07272727 C48.8544156,-0.103246753 46.6164935,-0.474415584 45.2263636,1.07272727 C38.9122078,8.09909091 32.3093506,14.8202597 25.4644156,21.2967532 C20.3754545,16.5428571 15.2246753,11.8535065 10.1107792,7.15805195 C8.31597403,5.50961039 5.71805195,6.02688312 4.58883117,7.99064935 C2.94402597,8.80701299 1.61077922,9.8712987 0.508311688,11.6877922 C-0.0166233766,12.5532468 0.0242857143,13.6457143 0.508311688,14.5142857 C3.80974026,20.4335065 10.191039,25.6377922 15.4377922,30.4271429 C14.7357143,31.0555844 14.0388312,31.69 13.3225974,32.3051948 C6.25376623,38.3755844 1.48571429,42.2271429 10.3318182,48.4512987 C10.4511688,48.5353247 10.5728571,48.5167532 10.694026,48.5658442 C10.8635065,48.644026 11.0261039,48.6990909 11.214026,48.73 C11.2724675,48.7322078 11.327013,48.7420779 11.3845455,48.7375325 C11.5666234,48.7523377 11.7448052,48.7987013 11.9293506,48.7624675 C16.6853247,47.83 21.1081818,44.102987 25.121039,39.9988312 C29.0301299,43.8519481 33.1925974,47.532987 37.7697403,49.7171429 C38.8594805,50.2372727 40.1587013,49.9341558 40.9976623,49.2066234 C42.4044156,49.3128571 43.687013,48.4387013 44.3307792,47.1824675 C44.4261039,47.1235065 44.4875325,47.0898701 44.5907792,47.0253247 C46.635974,45.7476623 46.8228571,43.2031169 45.3094805,41.4492208 C41.8922078,37.4892208 38.2596104,33.7248052 34.5564935,30.0271429 C41.2241558,23.5120779 49.5497403,16.4855844 53.7481818,8.30857143 Z" id="Shape"></path>
                </g>
            </g>
        </g>
    </g>
</svg>